<svg width="370" height="80" viewBox="0 0 370 80" fill="none" xmlns="http://www.w3.org/2000/svg">
<rect x="3" y="4.42432" width="365" height="73.5758" stroke="white" stroke-width="4"/>
<path d="M109.842 48V30.96H113.154V45.096H121.842V48H109.842ZM135.69 45.096V48H123.858V30.96H135.474V33.864H127.17V37.968H134.346V40.656H127.17V45.096H135.69ZM142.904 30.96H146.264L152.528 48H149.12L147.536 43.752H141.584L140.024 48H136.616L142.904 30.96ZM146.936 41.424L144.584 34.392L142.136 41.424H146.936ZM154.397 48V30.96H161.933C162.717 30.96 163.437 31.12 164.093 31.44C164.765 31.76 165.341 32.192 165.821 32.736C166.317 33.28 166.693 33.888 166.949 34.56C167.221 35.232 167.357 35.92 167.357 36.624C167.357 37.344 167.229 38.04 166.973 38.712C166.733 39.368 166.381 39.944 165.917 40.44C165.453 40.936 164.909 41.32 164.285 41.592L168.173 48H164.525L161.021 42.288H157.709V48H154.397ZM157.709 39.384H161.861C162.277 39.384 162.645 39.264 162.965 39.024C163.285 38.768 163.541 38.432 163.733 38.016C163.925 37.6 164.021 37.136 164.021 36.624C164.021 36.08 163.909 35.608 163.685 35.208C163.461 34.792 163.173 34.464 162.821 34.224C162.485 33.984 162.117 33.864 161.717 33.864H157.709V39.384ZM173.67 37.056V48H170.358V30.96H172.998L181.806 42.192V30.984H185.118V48H182.358L173.67 37.056ZM208.324 48V36.816L203.956 45.144H202.108L197.74 36.816V48H194.428V30.96H197.98L203.02 40.656L208.108 30.96H211.636V48H208.324ZM222.466 48.12C221.218 48.12 220.082 47.88 219.058 47.4C218.05 46.92 217.178 46.272 216.442 45.456C215.722 44.624 215.162 43.696 214.762 42.672C214.362 41.632 214.162 40.568 214.162 39.48C214.162 38.344 214.37 37.264 214.786 36.24C215.218 35.2 215.802 34.28 216.538 33.48C217.29 32.664 218.17 32.024 219.178 31.56C220.202 31.08 221.322 30.84 222.538 30.84C223.77 30.84 224.89 31.088 225.898 31.584C226.922 32.08 227.794 32.744 228.514 33.576C229.234 34.408 229.794 35.336 230.194 36.36C230.594 37.384 230.794 38.44 230.794 39.528C230.794 40.648 230.586 41.728 230.17 42.768C229.754 43.792 229.17 44.712 228.418 45.528C227.682 46.328 226.802 46.96 225.778 47.424C224.77 47.888 223.666 48.12 222.466 48.12ZM217.522 39.48C217.522 40.216 217.634 40.928 217.858 41.616C218.082 42.304 218.402 42.92 218.818 43.464C219.25 43.992 219.77 44.416 220.378 44.736C221.002 45.04 221.706 45.192 222.49 45.192C223.29 45.192 224.002 45.032 224.626 44.712C225.25 44.376 225.77 43.936 226.186 43.392C226.602 42.832 226.914 42.216 227.122 41.544C227.346 40.856 227.458 40.168 227.458 39.48C227.458 38.744 227.338 38.04 227.098 37.368C226.874 36.68 226.546 36.072 226.114 35.544C225.698 35 225.178 34.576 224.554 34.272C223.946 33.952 223.258 33.792 222.49 33.792C221.674 33.792 220.954 33.96 220.33 34.296C219.722 34.616 219.21 35.048 218.794 35.592C218.378 36.136 218.058 36.744 217.834 37.416C217.626 38.088 217.522 38.776 217.522 39.48ZM233.335 48V30.96H240.871C241.655 30.96 242.375 31.12 243.031 31.44C243.703 31.76 244.279 32.192 244.759 32.736C245.255 33.28 245.631 33.888 245.887 34.56C246.159 35.232 246.295 35.92 246.295 36.624C246.295 37.344 246.167 38.04 245.911 38.712C245.671 39.368 245.319 39.944 244.855 40.44C244.391 40.936 243.847 41.32 243.223 41.592L247.111 48H243.463L239.959 42.288H236.647V48H233.335ZM236.647 39.384H240.799C241.215 39.384 241.583 39.264 241.903 39.024C242.223 38.768 242.479 38.432 242.671 38.016C242.863 37.6 242.959 37.136 242.959 36.624C242.959 36.08 242.847 35.608 242.623 35.208C242.399 34.792 242.111 34.464 241.759 34.224C241.423 33.984 241.055 33.864 240.655 33.864H236.647V39.384ZM261.128 45.096V48H249.296V30.96H260.912V33.864H252.608V37.968H259.784V40.656H252.608V45.096H261.128Z" fill="white"/>
</svg>
